PathFileType	4	(X/Y/Z)	G:\Shared drives\HPL_Drive\Nord Sprinting Study\Kristen_Nord_test\Trimmed_Nord000003.trc
DataRate	CameraRate	NumFrames	NumMarkers	Units	OrigDataRate	OrigDataStartFrame	OrigNumFrames
200.00	200.00	      6	52	mm	200.00	598	      1592
Frame#	Time	C7			R_Shoulder			L_Shoulder			Sternum			R_humerus			R_elbow_med			R_elbow_lat			R_forearm			R_wrist_radius			R_wrist_ulna			L_humerus			L_elbow_med			L_elbow_lat			L_forearm			L_wrist_radius			L_wrist_ulna			r.ASIS			r.PSIS			r_IC			L.ASIS			L.PSIS			l_IC			r_thigh1			r_thigh2			r_thigh3			r_thigh4			r_thigh5			r_knee			r_mknee			r_shank_antsup			r_sh2			r_sh3			r_sh4			r_ankle			r_mankle			r_calc			r_5meta			r_toe			L_thigh1			L_thigh2			L_thigh3			L_thigh4			L_knee			L_mknee			L_shank_antsup			L_sh2			L_sh3			L_ankle			L_mankle			L_calc			L_5meta			L_toe			
		X1	Y1	Z1	X2	Y2	Z2	X3	Y3	Z3	X4	Y4	Z4	X5	Y5	Z5	X6	Y6	Z6	X7	Y7	Z7	X8	Y8	Z8	X9	Y9	Z9	X10	Y10	Z10	X11	Y11	Z11	X12	Y12	Z12	X13	Y13	Z13	X14	Y14	Z14	X15	Y15	Z15	X16	Y16	Z16	X17	Y17	Z17	X18	Y18	Z18	X19	Y19	Z19	X20	Y20	Z20	X21	Y21	Z21	X22	Y22	Z22	X23	Y23	Z23	X24	Y24	Z24	X25	Y25	Z25	X26	Y26	Z26	X27	Y27	Z27	X28	Y28	Z28	X29	Y29	Z29	X30	Y30	Z30	X31	Y31	Z31	X32	Y32	Z32	X33	Y33	Z33	X34	Y34	Z34	X35	Y35	Z35	X36	Y36	Z36	X37	Y37	Z37	X38	Y38	Z38	X39	Y39	Z39	X40	Y40	Z40	X41	Y41	Z41	X42	Y42	Z42	X43	Y43	Z43	X44	Y44	Z44	X45	Y45	Z45	X46	Y46	Z46	X47	Y47	Z47	X48	Y48	Z48	X49	Y49	Z49	X50	Y50	Z50	X51	Y51	Z51	X52	Y52	Z52	

598	2.985	1175.68787	1016.56012	917.83594	1314.02454	1032.50769	877.27948	1039.14099	1042.96875	867.57568	1179.83594	1041.39734	778.12115	1457.21497	921.54095	911.49548	1538.67786	789.72070	880.87762	1538.68091	817.20404	956.52655	1619.14221	919.92218	934.61572	1659.65991	1014.13983	882.36346	1698.77087	992.62274	903.75647	856.42218	944.39813	880.06805	775.61066	848.40704	815.49182	765.72052	857.05994	892.77850	734.89069	1004.92761	871.79803	687.41797	1081.58618	837.40594	742.04248	1094.43201	842.21985	1307.28198	627.62891	622.14392	1255.13049	596.58948	809.59570	1334.40234	675.44739	716.46704	1080.14478	618.50397	617.59991	1140.41895	590.16156	802.81793	1049.35217	662.19965	697.45197	1375.98865	497.29504	474.93512	1376.06250	438.58640	375.29874	1389.59192	384.48807	374.94287	1389.60132	407.02121	531.58447	1374.50012	348.45825	429.21381	1381.47046	350.70602	307.37512	1253.66431	339.26892	317.82913	1397.83069	222.61179	317.42911	1381.07690	103.77684	329.70340	1396.20239	229.43460	393.49899	1379.74268	115.81422	411.87143	1364.14917	-60.22297	385.90451	1286.26074	-49.35843	358.15860	1305.31726	-74.82140	446.99496	1368.80090	-152.35135	300.53360	1336.31897	-131.17747	244.21579	1012.86371	491.74197	467.37283	1014.07330	419.01212	346.97003	1005.49347	391.23300	532.85870	1014.93298	322.71097	411.70551	1004.49658	324.20694	323.65350	1131.65173	319.29266	304.09192	990.55505	212.16359	322.49075	1004.80109	227.72012	411.41159	1020.31830	106.93941	419.22638	1034.52795	-72.98796	402.24680	1099.02844	-55.10978	340.31186	1088.62463	-63.76934	442.62646	1031.54968	-187.82439	316.23438	1066.71472	-175.31354	253.95363	
599	2.990	1175.80261	1016.60767	917.05212	1314.22217	1032.39355	876.39429	1039.20630	1042.97302	866.73975	1179.90332	1041.15283	777.25049	1457.23853	921.32611	910.77606	1538.53967	789.38196	880.35095	1538.70178	816.98907	955.87408	1619.82654	919.28912	933.92303	1660.53357	1013.24469	881.36945	1699.56787	991.59253	902.77246	856.47003	944.36194	879.50348	775.64624	848.14917	815.18073	765.82092	857.05945	892.42450	734.93115	1004.86145	871.13965	687.45148	1081.40283	836.56512	741.99994	1094.29443	841.40039	1307.29846	627.15405	622.21344	1255.13220	596.33319	809.73242	1334.45923	675.07220	716.55029	1080.03296	617.99835	617.79816	1140.42297	589.93317	802.97321	1049.40222	661.87952	697.39624	1375.35828	496.69162	474.98770	1377.67737	436.74155	376.13120	1389.59314	384.58939	374.99133	1389.62708	406.92996	531.65851	1374.53296	348.45068	429.22141	1379.47253	351.10904	305.96536	1253.66821	339.31879	317.86664	1397.92822	222.79089	316.60013	1381.04578	103.86737	329.72778	1396.20630	229.52780	393.45325	1380.26184	115.60850	412.49670	1364.11877	-60.12272	385.92859	1286.25232	-49.23737	358.08670	1305.29028	-74.68327	447.00494	1368.44141	-152.20483	300.51770	1336.54773	-130.96640	244.27631	1012.89679	491.66733	467.51364	1014.11755	419.05716	347.06955	1005.51904	391.03845	532.92798	1014.61078	322.89069	412.11157	1004.50220	324.25092	323.61664	1131.62122	319.33310	304.05676	990.53290	212.25688	322.33426	1004.77057	227.71721	411.37418	1020.73474	106.29540	419.02713	1034.49890	-72.91750	402.28836	1098.99133	-55.04330	340.31934	1088.52649	-63.66391	442.65222	1031.55688	-187.77684	316.27798	1066.70508	-175.28185	254.08673	
600	2.995	1175.86804	1016.69482	916.25171	1314.35999	1032.25867	875.46265	1039.31653	1042.95264	865.82739	1180.03064	1040.90723	776.43384	1457.40369	921.20001	910.37146	1538.37622	788.96039	879.82831	1538.69141	816.77246	955.24390	1620.02222	918.71198	932.93872	1661.34009	1012.37512	880.32581	1700.27112	990.54596	901.76788	856.41492	944.40594	878.86853	775.76447	847.97931	814.85181	765.92432	857.02240	892.07721	734.98553	1004.75806	870.44232	687.48334	1081.20203	835.71454	742.04401	1094.13208	840.47620	1307.36230	626.72272	622.37122	1255.10449	596.06396	809.87500	1334.46606	674.71466	716.63470	1080.09399	617.51514	617.93286	1140.39612	589.68921	803.15790	1049.40417	661.54010	697.35931	1375.26892	496.66116	475.16989	1377.61401	436.81903	376.25717	1389.58997	384.63782	375.06946	1389.54187	406.78806	531.65540	1374.55786	348.44388	429.21121	1379.47290	351.21484	305.97360	1253.68176	339.31561	317.91452	1398.22449	222.81297	317.14075	1380.98572	103.92603	329.71423	1396.54297	229.24994	393.88489	1380.22583	115.70311	412.50177	1364.06873	-60.01988	385.98181	1286.22583	-49.12236	358.13635	1305.28455	-74.53027	447.05078	1368.61731	-152.17027	300.59888	1336.41687	-130.86810	244.35774	1012.95013	491.59808	467.74551	1014.12738	419.07111	347.17490	1005.47461	390.88077	533.00739	1015.05115	322.75754	411.64459	1004.50403	324.31769	323.61008	1131.34143	319.14182	304.56775	990.47968	212.25951	322.45395	1004.72949	227.74715	411.39990	1020.77954	106.34998	419.03409	1034.48291	-72.84270	402.25909	1098.94897	-54.96648	340.32742	1088.57568	-63.54634	442.75076	1031.58289	-187.72455	316.33664	1066.75293	-175.23079	254.02359	
601	3.000	1175.97156	1016.68011	915.52643	1314.47168	1032.09021	874.63800	1039.40747	1042.88477	864.97638	1180.14673	1040.56287	775.34192	1457.35693	920.85083	909.38751	1538.22717	788.52332	879.27887	1538.70593	816.50061	954.69318	1620.42590	918.08392	932.10901	1662.22644	1011.47363	879.30701	1701.09058	989.49945	900.73920	856.61670	944.31213	878.37268	775.87030	847.75140	814.59290	766.00940	857.00061	891.73767	734.99719	1004.61688	869.76886	687.59021	1080.94788	834.63953	742.04260	1093.97559	839.60449	1307.34863	626.21045	622.49353	1255.07507	595.76630	810.07538	1334.53101	674.34247	716.66528	1079.95581	617.00568	618.11548	1140.40125	589.39648	803.27380	1049.40942	661.18024	697.36023	1375.24414	496.54132	475.39844	1377.52515	436.97559	376.39493	1389.55664	384.66724	375.12509	1389.14417	406.53073	531.57843	1374.57507	348.40320	429.25354	1379.47913	351.25900	305.97754	1253.69165	339.37003	317.94354	1398.19788	222.89026	317.10641	1380.96033	104.00795	329.69888	1396.54932	229.30353	393.88510	1379.67188	116.01804	411.89777	1364.06396	-59.91600	385.94922	1286.21362	-49.01175	358.09668	1305.28320	-74.39140	447.06198	1368.22559	-152.05141	300.58923	1336.27673	-130.76723	244.48230	1013.08698	491.47299	467.90039	1014.16101	419.09338	347.28116	1005.43848	390.66711	533.07959	1014.61072	322.87762	412.09573	1004.51208	324.37283	323.59128	1131.32031	319.13168	304.58817	990.46210	212.39037	322.27878	1004.56140	227.62766	411.20001	1020.73938	106.41412	419.03192	1034.47717	-72.77621	402.28079	1098.93652	-54.87682	340.35376	1088.54480	-63.44923	442.75366	1031.62280	-187.66699	316.33157	1066.78577	-175.20145	254.11623	
602	3.005	1175.99255	1016.70984	914.74072	1314.60876	1031.92737	873.88519	1039.42163	1042.83167	864.14056	1180.20605	1040.34912	774.72827	1457.44666	920.50421	908.53687	1538.12219	788.06842	878.71411	1538.73828	816.21100	954.07544	1621.07837	917.44318	931.38062	1663.11670	1010.52148	878.31860	1701.84753	988.49567	899.73254	856.75800	944.27655	877.83130	776.01520	847.52197	814.26862	766.07526	856.96759	891.47571	735.14252	1004.54761	869.02283	687.66754	1080.73694	833.76306	742.08234	1093.84802	838.72797	1307.34558	625.71057	622.65204	1255.07861	595.46893	810.20264	1334.53979	673.95538	716.75446	1080.04797	616.54517	618.32440	1140.37683	589.07825	803.46051	1049.38916	660.80389	697.35992	1375.17737	496.48096	475.57028	1375.95374	438.82086	375.82278	1389.58728	384.74344	375.20081	1389.12549	406.36597	531.65729	1374.59314	348.35153	429.26978	1379.46033	351.32718	306.05121	1253.70227	339.40454	317.98239	1398.20374	222.93451	317.11227	1380.97437	104.03578	329.73895	1396.19702	229.71510	393.42514	1379.65076	116.08187	411.88800	1364.03418	-59.82483	385.98154	1286.14636	-48.90506	358.21494	1305.25769	-74.27649	447.16791	1368.16406	-151.96600	300.60202	1337.02283	-130.71426	245.00816	1013.16101	491.33350	468.07858	1014.17120	419.10468	347.42822	1005.43811	390.46881	533.13220	1014.89941	322.64639	411.64398	1004.49811	324.41101	323.60806	1131.64111	319.32404	304.11029	990.48370	212.42493	322.42059	1004.57239	227.70872	411.21722	1020.70117	106.46409	419.03918	1034.47375	-72.72599	402.30048	1098.92944	-54.82390	340.34149	1088.51965	-63.37200	442.72974	1031.66772	-187.64346	316.37854	1066.83435	-175.14076	254.08403	
603	3.010	1176.08118	1016.68134	914.00720	1314.77954	1031.76038	872.97729	1039.52148	1042.73218	863.30377	1180.29932	1040.00208	773.95044	1457.51086	920.30756	907.93463	1537.92285	787.61908	878.03394	1538.72253	815.91998	953.46332	1621.54883	916.78656	930.55365	1663.93335	1009.59222	877.27869	1702.51770	987.42621	898.72260	856.89380	944.23346	877.28259	776.06781	847.38965	813.98419	766.18378	856.93073	891.10193	735.17224	1004.47498	868.43762	687.61523	1080.66968	832.92096	742.13257	1093.68066	837.76544	1307.40015	625.21472	622.86310	1255.05310	595.13641	810.40875	1334.54565	673.55243	716.86786	1080.26086	616.12610	618.30560	1140.32861	588.74524	803.63739	1049.72363	660.46765	697.24744	1375.17908	496.31531	475.81128	1375.94714	438.81824	375.94543	1389.52869	384.78430	375.24557	1389.53198	406.34418	531.91058	1374.59949	348.29022	429.30313	1379.46191	351.35864	306.01053	1253.69702	339.43561	318.01389	1398.23645	222.96933	317.11819	1380.93396	104.09358	329.71368	1396.52356	229.40300	393.88016	1379.65137	116.13787	411.90433	1364.05823	-59.73159	385.98459	1285.39587	-48.92830	358.35034	1305.35327	-74.19021	447.15540	1368.07239	-151.90680	300.66418	1336.97791	-130.63367	245.09016	1013.26648	491.26202	468.31274	1014.24500	419.15964	347.60431	1005.43732	390.33688	533.23779	1014.79498	322.47537	411.78705	1004.48969	324.44666	323.62000	1131.59180	319.33704	304.12479	990.43591	212.42366	322.36343	1004.51099	227.74146	411.22055	1020.68909	106.52267	419.01935	1034.47742	-72.67245	402.30435	1098.93994	-54.71812	340.36652	1088.51001	-63.29120	442.77307	1031.73267	-187.57892	316.38351	1066.95459	-175.12003	254.18703	
